<svg width="51" height="51" viewBox="0 0 51 51" fill="none" xmlns="http://www.w3.org/2000/svg">
<path fill-rule="evenodd" clip-rule="evenodd" d="M25.13 4.97223e-05C20.1518 0.00796725 15.2878 1.4919 11.153 4.26419C7.01827 7.03648 3.79841 10.9726 1.90067 15.5749C0.00292385 20.1771 -0.487462 25.2387 0.491487 30.1197C1.47044 35.0006 3.87478 39.4817 7.40045 42.9962C10.9261 46.5106 15.4148 48.9007 20.2988 49.8642C25.1829 50.8276 30.2429 50.3211 34.8391 48.4087C39.4353 46.4964 43.3612 43.264 46.1203 39.1205C48.8794 34.9769 50.3479 30.1082 50.34 25.1301C50.336 21.8243 49.6807 18.5517 48.4114 15.4994C47.1421 12.447 45.2837 9.67474 42.9425 7.34094C40.6013 5.00714 37.8231 3.15759 34.7667 1.898C31.7104 0.638413 28.4357 -0.00652207 25.13 4.97223e-05Z" fill="#A45EFC"/>
<path fill-rule="evenodd" clip-rule="evenodd" d="M25.1699 9.09009C21.9895 9.09009 18.8806 10.0332 16.2363 11.8001C13.5919 13.567 11.5309 16.0783 10.3139 19.0165C9.09681 21.9548 8.77837 25.1879 9.39883 28.3071C10.0193 31.4264 11.5508 34.2915 13.7996 36.5404C16.0484 38.7892 18.9136 40.3207 22.0328 40.9411C25.152 41.5616 28.3851 41.2431 31.3234 40.0261C34.2616 38.809 36.773 36.748 38.5399 34.1037C40.3068 31.4593 41.2498 28.3504 41.2498 25.1701C41.2512 23.0581 40.8362 20.9665 40.0285 19.015C39.2209 17.0635 38.0365 15.2903 36.5431 13.7969C35.0496 12.3035 33.2765 11.1191 31.3249 10.3114C29.3734 9.5038 27.2819 9.08878 25.1699 9.09009Z" fill="white"/>
<path fill-rule="evenodd" clip-rule="evenodd" d="M25.17 15.7501C23.3069 15.7501 21.4857 16.3025 19.9366 17.3376C18.3874 18.3727 17.1801 19.8439 16.4671 21.5652C15.7541 23.2865 15.5675 25.1805 15.931 27.0078C16.2945 28.8351 17.1917 30.5136 18.5091 31.831C19.8265 33.1484 21.505 34.0456 23.3323 34.4091C25.1596 34.7725 27.0536 34.586 28.7749 33.873C30.4962 33.16 31.9674 31.9526 33.0024 30.4035C34.0375 28.8544 34.59 27.0332 34.59 25.1701C34.59 22.6717 33.5976 20.2757 31.831 18.5091C30.0644 16.7425 27.6684 15.7501 25.17 15.7501Z" fill="#FFA0A0"/>
</svg>
